<svg width="37" height="10" viewBox="0 0 37 10" fill="none" xmlns="http://www.w3.org/2000/svg">
<path d="M0.103516 9H5.81552V7.608H1.68152V0.180001H0.103516V9Z" fill="black"/>
<path d="M10.9123 9.18C13.6903 9.18 15.6103 7.194 15.6103 4.59C15.6103 1.986 13.6903 0 10.9123 0C8.13433 0 6.21433 1.986 6.21433 4.59C6.21433 7.194 8.13433 9.18 10.9123 9.18ZM10.9123 7.752C9.11233 7.752 7.90033 6.408 7.90033 4.59C7.90033 2.772 9.11233 1.428 10.9123 1.428C12.7123 1.428 13.9243 2.772 13.9243 4.59C13.9243 6.408 12.7123 7.752 10.9123 7.752Z" fill="black"/>
<path d="M21.4826 9.18C24.3206 9.18 26.1146 7.176 26.1146 4.26H21.3926V5.634H24.2786C24.0086 6.954 22.9526 7.776 21.4826 7.776C19.6766 7.776 18.4706 6.408 18.4706 4.59C18.4706 2.784 19.6766 1.428 21.4826 1.428C22.7126 1.428 23.6246 1.98 24.1166 2.808L25.4546 1.938C24.6866 0.798 23.3066 0 21.4826 0C18.7046 0 16.7906 1.986 16.7906 4.59C16.7906 7.194 18.7046 9.18 21.4826 9.18Z" fill="black"/>
<path d="M31.8655 9.18C34.6435 9.18 36.5635 7.194 36.5635 4.59C36.5635 1.986 34.6435 0 31.8655 0C29.0875 0 27.1675 1.986 27.1675 4.59C27.1675 7.194 29.0875 9.18 31.8655 9.18ZM31.8655 7.752C30.0655 7.752 28.8535 6.408 28.8535 4.59C28.8535 2.772 30.0655 1.428 31.8655 1.428C33.6655 1.428 34.8775 2.772 34.8775 4.59C34.8775 6.408 33.6655 7.752 31.8655 7.752Z" fill="black"/>
</svg>
